<svg
  xmlns="http://www.w3.org/2000/svg"
  width="17.778"
  height="16"
  viewBox="0 0 17.778 16"
><path
    class="fill-primary"
    d="M11.889,8.056V4.5H3v16H20.778V8.056ZM6.556,18.722H4.778V16.944H6.556Zm0-3.556H4.778V13.389H6.556Zm0-3.556H4.778V9.833H6.556Zm0-3.556H4.778V6.278H6.556Zm3.556,10.667H8.333V16.944h1.778Zm0-3.556H8.333V13.389h1.778Zm0-3.556H8.333V9.833h1.778Zm0-3.556H8.333V6.278h1.778ZM19,18.722H11.889V16.944h1.778V15.167H11.889V13.389h1.778V11.611H11.889V9.833H19Zm-1.778-7.111H15.444v1.778h1.778Zm0,3.556H15.444v1.778h1.778Z"
    transform="translate(-3 -4.5)"
  /></svg>
